<mxfile host="app.diagrams.net" modified="2022-05-05T13:20:51.427Z" agent="5.0 (Windows NT 10.0; Win64; x64) AppleWebKit/537.36 (KHTML, like Gecko) Chrome/100.0.4896.127 Safari/537.36" etag="lcwEM6RUsKTMlNSyL9X8" version="18.0.0" type="gitlab">
  <diagram id="b7h6Xm-x4111Ii_FDrFo" name="Page-1">
    <mxGraphModel dx="1422" dy="794" grid="1" gridSize="10" guides="1" tooltips="1" connect="1" arrows="1" fold="1" page="1" pageScale="1" pageWidth="850" pageHeight="1100" math="0" shadow="0">
      <root>
        <mxCell id="0" />
        <mxCell id="1" parent="0" />
        <mxCell id="qLTIPz8AFjsbVXSvVEzH-1" value="Employee" style="shape=umlActor;verticalLabelPosition=bottom;verticalAlign=top;html=1;outlineConnect=0;" vertex="1" parent="1">
          <mxGeometry x="210" y="250" width="60" height="120" as="geometry" />
        </mxCell>
        <mxCell id="qLTIPz8AFjsbVXSvVEzH-4" value="" style="html=1;" vertex="1" parent="1">
          <mxGeometry x="370" y="90" width="180" height="790" as="geometry" />
        </mxCell>
        <mxCell id="qLTIPz8AFjsbVXSvVEzH-5" value="add product" style="ellipse;whiteSpace=wrap;html=1;" vertex="1" parent="1">
          <mxGeometry x="390" y="100" width="140" height="70" as="geometry" />
        </mxCell>
        <mxCell id="qLTIPz8AFjsbVXSvVEzH-6" value="delete client" style="ellipse;whiteSpace=wrap;html=1;" vertex="1" parent="1">
          <mxGeometry x="400" y="450" width="140" height="70" as="geometry" />
        </mxCell>
        <mxCell id="qLTIPz8AFjsbVXSvVEzH-7" value="update client" style="ellipse;whiteSpace=wrap;html=1;" vertex="1" parent="1">
          <mxGeometry x="390" y="540" width="140" height="70" as="geometry" />
        </mxCell>
        <mxCell id="qLTIPz8AFjsbVXSvVEzH-8" value="add order" style="ellipse;whiteSpace=wrap;html=1;" vertex="1" parent="1">
          <mxGeometry x="390" y="630" width="140" height="70" as="geometry" />
        </mxCell>
        <mxCell id="qLTIPz8AFjsbVXSvVEzH-9" value="update product" style="ellipse;whiteSpace=wrap;html=1;" vertex="1" parent="1">
          <mxGeometry x="400" y="270" width="140" height="70" as="geometry" />
        </mxCell>
        <mxCell id="qLTIPz8AFjsbVXSvVEzH-10" value="delete product" style="ellipse;whiteSpace=wrap;html=1;" vertex="1" parent="1">
          <mxGeometry x="390" y="180" width="140" height="70" as="geometry" />
        </mxCell>
        <mxCell id="qLTIPz8AFjsbVXSvVEzH-11" value="add client" style="ellipse;whiteSpace=wrap;html=1;" vertex="1" parent="1">
          <mxGeometry x="400" y="360" width="140" height="70" as="geometry" />
        </mxCell>
        <mxCell id="qLTIPz8AFjsbVXSvVEzH-13" value="update order" style="ellipse;whiteSpace=wrap;html=1;" vertex="1" parent="1">
          <mxGeometry x="390" y="790" width="140" height="70" as="geometry" />
        </mxCell>
        <mxCell id="qLTIPz8AFjsbVXSvVEzH-14" value="delete order" style="ellipse;whiteSpace=wrap;html=1;" vertex="1" parent="1">
          <mxGeometry x="390" y="710" width="140" height="70" as="geometry" />
        </mxCell>
        <mxCell id="qLTIPz8AFjsbVXSvVEzH-17" value="Client" style="shape=umlActor;verticalLabelPosition=bottom;verticalAlign=top;html=1;" vertex="1" parent="1">
          <mxGeometry x="170" y="685" width="60" height="120" as="geometry" />
        </mxCell>
        <mxCell id="qLTIPz8AFjsbVXSvVEzH-19" value="" style="endArrow=open;endFill=1;endSize=12;html=1;rounded=0;" edge="1" parent="1">
          <mxGeometry width="160" relative="1" as="geometry">
            <mxPoint x="230" y="750" as="sourcePoint" />
            <mxPoint x="390" y="750" as="targetPoint" />
          </mxGeometry>
        </mxCell>
        <mxCell id="qLTIPz8AFjsbVXSvVEzH-20" value="" style="endArrow=open;endFill=1;endSize=12;html=1;rounded=0;entryX=0.043;entryY=0.3;entryDx=0;entryDy=0;entryPerimeter=0;" edge="1" parent="1" target="qLTIPz8AFjsbVXSvVEzH-13">
          <mxGeometry width="160" relative="1" as="geometry">
            <mxPoint x="240" y="780" as="sourcePoint" />
            <mxPoint x="400" y="805" as="targetPoint" />
          </mxGeometry>
        </mxCell>
        <mxCell id="qLTIPz8AFjsbVXSvVEzH-21" value="" style="endArrow=open;endFill=1;endSize=12;html=1;rounded=0;" edge="1" parent="1">
          <mxGeometry width="160" relative="1" as="geometry">
            <mxPoint x="240" y="710" as="sourcePoint" />
            <mxPoint x="390" y="670" as="targetPoint" />
          </mxGeometry>
        </mxCell>
        <mxCell id="qLTIPz8AFjsbVXSvVEzH-23" value="" style="endArrow=open;endFill=1;endSize=12;html=1;rounded=0;" edge="1" parent="1" source="qLTIPz8AFjsbVXSvVEzH-1">
          <mxGeometry width="160" relative="1" as="geometry">
            <mxPoint x="240" y="484.5" as="sourcePoint" />
            <mxPoint x="400" y="484.5" as="targetPoint" />
          </mxGeometry>
        </mxCell>
        <mxCell id="qLTIPz8AFjsbVXSvVEzH-24" value="" style="endArrow=open;endFill=1;endSize=12;html=1;rounded=0;" edge="1" parent="1" source="qLTIPz8AFjsbVXSvVEzH-1">
          <mxGeometry width="160" relative="1" as="geometry">
            <mxPoint x="240" y="400" as="sourcePoint" />
            <mxPoint x="400" y="400" as="targetPoint" />
          </mxGeometry>
        </mxCell>
        <mxCell id="qLTIPz8AFjsbVXSvVEzH-25" value="" style="endArrow=open;endFill=1;endSize=12;html=1;rounded=0;" edge="1" parent="1">
          <mxGeometry width="160" relative="1" as="geometry">
            <mxPoint x="280" y="260" as="sourcePoint" />
            <mxPoint x="390" y="140" as="targetPoint" />
          </mxGeometry>
        </mxCell>
        <mxCell id="qLTIPz8AFjsbVXSvVEzH-26" value="" style="endArrow=open;endFill=1;endSize=12;html=1;rounded=0;" edge="1" parent="1">
          <mxGeometry width="160" relative="1" as="geometry">
            <mxPoint x="290" y="280" as="sourcePoint" />
            <mxPoint x="390" y="214.5" as="targetPoint" />
          </mxGeometry>
        </mxCell>
        <mxCell id="qLTIPz8AFjsbVXSvVEzH-27" value="" style="endArrow=open;endFill=1;endSize=12;html=1;rounded=0;" edge="1" parent="1">
          <mxGeometry width="160" relative="1" as="geometry">
            <mxPoint x="280" y="305" as="sourcePoint" />
            <mxPoint x="400" y="304.5" as="targetPoint" />
          </mxGeometry>
        </mxCell>
        <mxCell id="qLTIPz8AFjsbVXSvVEzH-28" value="" style="endArrow=open;endFill=1;endSize=12;html=1;rounded=0;" edge="1" parent="1" source="qLTIPz8AFjsbVXSvVEzH-1">
          <mxGeometry width="160" relative="1" as="geometry">
            <mxPoint x="230" y="574.5" as="sourcePoint" />
            <mxPoint x="390" y="574.5" as="targetPoint" />
          </mxGeometry>
        </mxCell>
        <mxCell id="qLTIPz8AFjsbVXSvVEzH-29" value="Order management application" style="text;html=1;align=center;verticalAlign=middle;resizable=0;points=[];autosize=1;strokeColor=none;fillColor=none;" vertex="1" parent="1">
          <mxGeometry x="370" y="70" width="180" height="20" as="geometry" />
        </mxCell>
      </root>
    </mxGraphModel>
  </diagram>
</mxfile>
